PathFileType	4	(X/Y/Z)	./resultDataOpenSim/trcMotMarkerGrf/sub09/qtm-02-04.trc
DataRate	CameraRate	NumFrames	NumMarkers	Units	OrigDataRate	OrigDataStartFrame	OrigNumFrames
250.000000	250.000000	11	24	m	250.000000	173	461
Frame#	Time	L.Toe.Tip			R.Toe.Tip			L.Ankle.Lat			R.Ankle.Lat			L.Ankle.Med			R.Ankle.Med			L.Heel			R.Heel			L.Knee.Lat			R.Knee.Lat			L.Knee.Med			R.Knee.Med			L.Thigh.Upper			R.Thigh.Upper			L.ASIS			R.ASIS			V.Sacral			L.Acromium			R.Acromium			C7			L.Elbow			R.Elbow			L.Wrist.Lat			R.Wrist.Lat
		X1	Y1	Z1	X2	Y2	Z2	X3	Y3	Z3	X4	Y4	Z4	X5	Y5	Z5	X6	Y6	Z6	X7	Y7	Z7	X8	Y8	Z8	X9	Y9	Z9	X10	Y10	Z10	X11	Y11	Z11	X12	Y12	Z12	X13	Y13	Z13	X14	Y14	Z14	X15	Y15	Z15	X16	Y16	Z16	X17	Y17	Z17	X18	Y18	Z18	X19	Y19	Z19	X20	Y20	Z20	X21	Y21	Z21	X22	Y22	Z22	X23	Y23	Z23	X24	Y24	Z24

173	0.688	0.22768925	0.016281211	0.019700164	-0.57633409	0.05788168	0.090976989	0.081575065	0.046691776	-0.02966949	-0.63228734	0.19660932	0.13524615	0.094547361	0.068732877	0.06633994	-0.58356588	0.1993466	0.049380689	0.0069425759	0.012147976	0.010647301	-0.67741769	0.23523771	0.074458784	0.099540109	0.45742923	-0.088067332	-0.23982658	0.42252707	0.20433471	0.092111222	0.46270766	0.037602915	-0.23124311	0.3985567	0.078492542	-0.11200754	0.82286761	-0.14795176	-0.17474174	0.8125975	0.22226818	-0.052642246	0.91081886	-0.07716426	-0.063848884	0.89473822	0.16268879	-0.2314975	0.95421882	0.032933484	-0.071915569	1.3473531	-0.13572088	-0.093618643	1.367705	0.19508818	-0.14613029	1.4092876	0.027903833	-0.23794471	1.0271925	-0.19476591	-0.24170886	1.0300868	0.28277363	-0.16171106	0.78018946	-0.25150593	-0.067266417	0.8163825	0.28486746
174	0.692	0.22782184	0.016136628	0.019857386	-0.57143658	0.059972927	0.091966112	0.081901211	0.0466838	-0.029571403	-0.62154797	0.20149674	0.13663636	0.094844549	0.068553471	0.066526654	-0.57266741	0.20240752	0.051042832	0.0070105406	0.012206679	0.010670448	-0.66563975	0.24152862	0.076130301	0.1040453	0.45687593	-0.08823569	-0.2273884	0.42170862	0.20489055	0.097393361	0.46212916	0.037567238	-0.21799777	0.39720404	0.078508781	-0.10507718	0.82345636	-0.14828149	-0.16683538	0.81237921	0.22182251	-0.045639145	0.91170825	-0.07775576	-0.056868653	0.89518102	0.16206491	-0.22457503	0.95531858	0.032920619	-0.064489043	1.3480672	-0.13585442	-0.086124987	1.3682344	0.19502753	-0.1387948	1.4101037	0.027842285	-0.22982108	1.0274686	-0.19525952	-0.23474723	1.0309794	0.2824641	-0.15202417	0.78066616	-0.25134457	-0.061844438	0.81615588	0.28539435
175	0.696	0.22792965	0.016017847	0.019910287	-0.5660013	0.062110134	0.093033616	0.082230045	0.046635368	-0.029587392	-0.61043033	0.20605558	0.13800478	0.095141371	0.068416196	0.066618904	-0.56160568	0.20547804	0.052586872	0.0070679572	0.012262205	0.010650756	-0.65351948	0.24764367	0.077880627	0.10834514	0.45636733	-0.088378958	-0.21468499	0.42096661	0.2052514	0.1020496	0.46157336	0.037471116	-0.20494091	0.3962829	0.078469407	-0.098210796	0.82413244	-0.14858858	-0.15915439	0.81235151	0.22138547	-0.038710579	0.912597	-0.078289841	-0.050019816	0.89578459	0.16154608	-0.21732525	0.95653146	0.03275629	-0.057081036	1.348881	-0.13596268	-0.078658602	1.3688677	0.19499893	-0.131476	1.4110956	0.02780561	-0.22169732	1.0278018	-0.1957159	-0.22804147	1.0320117	0.28230105	-0.14227534	0.78122784	-0.25113628	-0.056542608	0.81594771	0.2858957
176	0.7	0.22800629	0.01591946	0.019907047	-0.55986783	0.064350912	0.094246934	0.082545312	0.046508192	-0.029653661	-0.59897865	0.21028513	0.13934223	0.095394866	0.068318058	0.066636557	-0.55033063	0.20857781	0.053995206	0.007102341	0.012304092	0.010590771	-0.64106054	0.25367933	0.079626574	0.11237148	0.45587409	-0.088499064	-0.20174583	0.42036359	0.20546272	0.10593275	0.46106345	0.037241396	-0.1919835	0.39576031	0.078355716	-0.091444145	0.82494244	-0.14888147	-0.1517636	0.81251659	0.22099516	-0.031872902	0.91349375	-0.07876263	-0.043311086	0.89653907	0.16112484	-0.20938436	0.95775071	0.032464873	-0.049691285	1.3498005	-0.13604118	-0.071247059	1.3696242	0.19499119	-0.12419258	1.4122537	0.027785187	-0.21361942	1.0282131	-0.19623778	-0.2215307	1.033173	0.28225412	-0.132448	0.78189121	-0.25086002	-0.051451372	0.81575238	0.28636173
177	0.704	0.22804034	0.015845552	0.019894363	-0.55280239	0.066770276	0.095654723	0.082803318	0.046333075	-0.029715206	-0.58724695	0.2142276	0.14062953	0.095576589	0.068252558	0.066604975	-0.53875411	0.21170971	0.055268882	0.0071027711	0.012326885	0.01050205	-0.62829945	0.25967424	0.081406362	0.11605045	0.45538639	-0.088583131	-0.18865757	0.41994176	0.20558854	0.10894762	0.46060409	0.03681671	-0.17918853	0.39562254	0.078239949	-0.084795583	0.82592223	-0.14917328	-0.14462702	0.81288234	0.2206527	-0.025149778	0.91441777	-0.079166562	-0.036771595	0.89743367	0.16077712	-0.20091937	0.95898061	0.032249279	-0.042345781	1.3508295	-0.13611238	-0.063926087	1.3705189	0.19499616	-0.11694671	1.4135494	0.027763694	-0.20560636	1.0287154	-0.19684732	-0.21498364	1.0344128	0.28226458	-0.1225213	0.782673	-0.25049566	-0.046608582	0.81557562	0.28679205
178	0.708	0.2280276	0.015797604	0.019892865	-0.54460227	0.069409608	0.097274521	0.082961754	0.046178876	-0.029772928	-0.57527718	0.21795807	0.14184975	0.095685585	0.068213593	0.066545099	-0.52680104	0.21491024	0.056400657	0.0070656598	0.01233142	0.010403768	-0.61524676	0.26550891	0.083283365	0.11933879	0.45495746	-0.088635719	-0.17549375	0.41973189	0.20566187	0.11127893	0.46021121	0.036275285	-0.16665855	0.39585897	0.078219065	-0.07826587	0.82709025	-0.1494744	-0.13764187	0.81345754	0.22032953	-0.018547553	0.91539242	-0.079496484	-0.030421867	0.89846301	0.16047755	-0.19257451	0.96036475	0.032220581	-0.035058897	1.3519686	-0.13618596	-0.056700807	1.3715574	0.19500682	-0.10970792	1.4149357	0.027728382	-0.19762556	1.0293056	-0.19745596	-0.20826216	1.0357063	0.28229989	-0.11250258	0.7835875	-0.25003451	-0.041908187	0.8154554	0.28720031
179	0.712	0.22797714	0.015770891	0.019902606	-0.53516999	0.072269542	0.09908128	0.083019642	0.046083302	-0.029847445	-0.56307907	0.2215574	0.14298508	0.095743856	0.068198331	0.066468497	-0.51452805	0.21823627	0.057391195	0.0069983243	0.012325433	0.010314998	-0.60193817	0.27092861	0.085195703	0.12224177	0.45470322	-0.088732927	-0.16229258	0.41976263	0.20568089	0.11333861	0.45991387	0.035795582	-0.15433203	0.39642642	0.078320454	-0.071880813	0.82844536	-0.14977124	-0.13077489	0.81424264	0.22001809	-0.012034335	0.91643659	-0.079750846	-0.02421916	0.89963134	0.1602305	-0.18480025	0.96199952	0.032195075	-0.027817896	1.3532163	-0.13624189	-0.049547193	1.372737	0.1950133	-0.10247159	1.4163798	0.02771043	-0.18964645	1.0299844	-0.19798701	-0.20139657	1.0370735	0.28235773	-0.10242476	0.78464488	-0.24947727	-0.037164907	0.81545068	0.28760466
180	0.716	0.22790475	0.015758646	0.019916712	-0.52451326	0.075324702	0.10101447	0.083013154	0.04603745	-0.02994329	-0.55063708	0.22509702	0.14401214	0.095778943	0.068204732	0.066377515	-0.50210892	0.22172123	0.058257463	0.0069143676	0.012320396	0.010242956	-0.58858122	0.27569239	0.086966838	0.12484241	0.45470647	-0.088992392	-0.14902499	0.42004769	0.20560168	0.11538505	0.45970932	0.035461219	-0.14195496	0.39726067	0.07844037	-0.065687776	0.82996808	-0.15003222	-0.12404094	0.81522638	0.21972756	-0.00556092	0.91756957	-0.079928715	-0.018073686	0.90094753	0.16006291	-0.1776422	0.96379117	0.03196399	-0.02059717	1.3545715	-0.13625085	-0.042452708	1.3740534	0.19500966	-0.095288795	1.4178765	0.027764207	-0.18167403	1.0307654	-0.19844407	-0.19446311	1.0385496	0.28243636	-0.092325044	0.78584779	-0.24883688	-0.032295097	0.81559493	0.28800891
181	0.72	0.22782437	0.015754042	0.019925376	-0.51271568	0.078500874	0.10302126	0.082981098	0.046015564	-0.030052604	-0.53793187	0.22863639	0.14491302	0.095808916	0.068228882	0.066271369	-0.48966031	0.22535705	0.058991072	0.006825121	0.012325882	0.010181359	-0.57547513	0.27968937	0.088386554	0.1272917	0.45489076	-0.089431741	-0.13559847	0.42057614	0.20534749	0.11740288	0.45955709	0.03522159	-0.12930902	0.39831525	0.078388787	-0.059692527	0.83162656	-0.15024265	-0.11743013	0.8163905	0.21945583	0.00089579807	0.91881499	-0.08003175	-0.011932258	0.90241146	0.15998023	-0.17101813	0.9655917	0.031431032	-0.013377243	1.3560307	-0.1361976	-0.035438807	1.3755057	0.19500276	-0.08818833	1.4194283	0.027833372	-0.17372754	1.031663	-0.19886316	-0.18751392	1.0401587	0.28252696	-0.082225257	0.78719409	-0.24814035	-0.027353632	0.81588673	0.28840574
182	0.724	0.22774439	0.015751031	0.019917999	-0.49988426	0.081679344	0.10509701	0.082938253	0.045997333	-0.030161678	-0.52495347	0.23220804	0.14569154	0.095840988	0.068266507	0.066150541	-0.47717144	0.22908928	0.059563669	0.0067364021	0.012345576	0.010119059	-0.56276318	0.28295849	0.089316607	0.12968472	0.45506237	-0.08992956	-0.12200701	0.42134173	0.20491209	0.11930672	0.45942238	0.035006062	-0.116384	0.39957205	0.078061017	-0.053816933	0.83339366	-0.15042568	-0.11091375	0.81771606	0.21919278	0.0073344937	0.92019499	-0.080069483	-0.0057957758	0.90401064	0.15995782	-0.16476854	0.96736722	0.030404477	-0.0061544764	1.3575899	-0.13608793	-0.028537589	1.377093	0.1950066	-0.0811354	1.4210429	0.027704698	-0.16581518	1.0326822	-0.19926222	-0.18059071	1.0419017	0.28263242	-0.07212351	0.78868416	-0.24741208	-0.022430498	0.81632198	0.28879397
183	0.728	0.22766925	0.015746504	0.019888194	-0.48610864	0.084774795	0.10726888	0.08287112	0.045974548	-0.030249292	-0.51170477	0.23578695	0.1463758	0.095879949	0.068315783	0.066017136	-0.46456141	0.23280335	0.05998329	0.0066514409	0.012377857	0.01004962	-0.55032153	0.28564599	0.089806479	0.13196215	0.45510468	-0.090379311	-0.10838966	0.42236078	0.20440616	0.12106912	0.45929761	0.034778823	-0.10332566	0.40102776	0.077516445	-0.047957047	0.83526035	-0.15062512	-0.1044732	0.81918544	0.21893448	0.013752176	0.92171962	-0.080059842	0.00032709602	0.90573241	0.15996667	-0.15857521	0.96912576	0.028721501	0.0010633461	1.3592516	-0.13594366	-0.021759387	1.3788094	0.19502879	-0.074095504	1.4227417	0.027267143	-0.1579345	1.0338211	-0.19963538	-0.17374948	1.0437563	0.28279219	-0.06201102	0.79032351	-0.2466591	-0.017574851	0.81690543	0.28917526
